<svg width="38" height="38" viewBox="0 0 38 38" fill="none" xmlns="http://www.w3.org/2000/svg">
<path d="M19 1.1875C9.16245 1.1875 1.1875 9.16245 1.1875 19C1.1875 28.8375 9.16245 36.8125 19 36.8125C28.8375 36.8125 36.8125 28.8375 36.8125 19C36.8125 9.16245 28.8375 1.1875 19 1.1875ZM29.9159 29.9159C27.2092 32.6146 23.5947 34.2089 19.7767 34.3881C15.9588 34.5673 12.2108 33.3187 9.26319 30.8855C6.31556 28.4522 4.3794 25.0088 3.83198 21.226C3.28456 17.4432 4.16509 13.5921 6.302 10.4231C8.43891 7.25409 11.6791 4.99417 15.3913 4.08368C19.1034 3.1732 23.0216 3.67737 26.3823 5.49797C29.743 7.31858 32.3056 10.3252 33.5706 13.9319C34.8356 17.5387 34.7125 21.4873 33.2253 25.0082C32.4502 26.8429 31.3263 28.5096 29.9159 29.9159Z" fill="#1439BC"/>
<path d="M11.2817 14.8438H14.2504V17.8125H11.2817V14.8438ZM23.7504 14.8438H26.7192V17.8125H23.7504V14.8438ZM25.1078 22.8C24.6484 23.9592 23.8505 24.953 22.818 25.652C21.7855 26.351 20.5664 26.7228 19.3196 26.7188H18.6813C17.4344 26.7228 16.2152 26.3511 15.1827 25.6521C14.1502 24.9531 13.3522 23.9592 12.8928 22.8L12.7979 22.5625H10.2402L10.6879 23.6818C11.3269 25.2793 12.43 26.6488 13.8548 27.6134C15.2795 28.5781 16.9607 29.0937 18.6813 29.0938H19.3196C21.0402 29.0937 22.7213 28.5781 24.1461 27.6134C25.5709 26.6488 26.6739 25.2793 27.3129 23.6818L27.7606 22.5625H25.2027L25.1078 22.8Z" fill="#1439BC"/>
</svg>
