<svg width="36" height="36" viewBox="0 0 36 36" fill="none" xmlns="http://www.w3.org/2000/svg">
<path d="M18.0007 32.2502C19.872 32.2502 21.725 31.8816 23.4539 31.1655C25.1828 30.4493 26.7537 29.3997 28.0769 28.0764C29.4002 26.7532 30.4498 25.1823 31.1659 23.4534C31.8821 21.7245 32.2507 19.8715 32.2507 18.0002C32.2507 16.1288 31.8821 14.2758 31.1659 12.5469C30.4498 10.818 29.4002 9.24713 28.0769 7.92389C26.7537 6.60066 25.1828 5.55101 23.4539 4.83488C21.725 4.11875 19.872 3.75016 18.0007 3.75016C14.2213 3.75016 10.5968 5.2515 7.92438 7.92389C5.25199 10.5963 3.75065 14.2208 3.75065 18.0002C3.75065 21.7795 5.25199 25.404 7.92438 28.0764C10.5968 30.7488 14.2213 32.2502 18.0007 32.2502ZM35.4173 18.0002C35.4173 27.6189 27.6194 35.4168 18.0007 35.4168C8.3819 35.4168 0.583984 27.6189 0.583984 18.0002C0.583984 8.38141 8.3819 0.583496 18.0007 0.583496C27.6194 0.583496 35.4173 8.38141 35.4173 18.0002ZM22.7507 24.989L16.4173 18.6557V7.7085H19.584V17.3447L24.9895 22.7502L22.7507 24.989Z" fill="#1439BC"/>
</svg>
