<svg width="280" height="202" viewBox="0 0 280 202" fill="none" xmlns="http://www.w3.org/2000/svg">
<path d="M280 172C280 188.569 266.569 202 250 202H30C13.4315 202 0 188.569 0 172V0H250C266.569 0 280 13.4315 280 30V172Z" fill="#DCF1D9"/>
<circle cx="238.5" cy="49.5" r="22.5" fill="#169D00"/>
<path d="M233.87 53.92V51.712L238.926 44.48H241.982V51.552H243.294V53.92H241.982V56H239.246V53.92H233.87ZM239.438 47.488L236.75 51.552H239.438V47.488Z" fill="white"/>
<path d="M139.733 91.47V94.62H143.963V96.618H139.733V99.948H144.503V102H137.213V89.418H144.503V91.47H139.733ZM152.319 91.884C153.507 91.884 154.467 92.262 155.199 93.018C155.931 93.762 156.297 94.806 156.297 96.15V102H153.777V96.492C153.777 95.7 153.579 95.094 153.183 94.674C152.787 94.242 152.247 94.026 151.563 94.026C150.867 94.026 150.315 94.242 149.907 94.674C149.511 95.094 149.313 95.7 149.313 96.492V102H146.793V92.028H149.313V93.27C149.649 92.838 150.075 92.502 150.591 92.262C151.119 92.01 151.695 91.884 152.319 91.884ZM159.971 90.84C159.515 90.84 159.137 90.702 158.837 90.426C158.549 90.138 158.405 89.784 158.405 89.364C158.405 88.944 158.549 88.596 158.837 88.32C159.137 88.032 159.515 87.888 159.971 87.888C160.415 87.888 160.781 88.032 161.069 88.32C161.357 88.596 161.501 88.944 161.501 89.364C161.501 89.784 161.357 90.138 161.069 90.426C160.781 90.702 160.415 90.84 159.971 90.84ZM161.213 103.638C161.213 104.742 160.937 105.534 160.385 106.014C159.845 106.506 159.065 106.752 158.045 106.752H156.929V104.61H157.649C158.033 104.61 158.303 104.532 158.459 104.376C158.615 104.232 158.693 103.992 158.693 103.656V92.028H161.213V103.638ZM168.131 102.162C167.171 102.162 166.307 101.952 165.539 101.532C164.771 101.1 164.165 100.494 163.721 99.714C163.289 98.934 163.073 98.034 163.073 97.014C163.073 95.994 163.295 95.094 163.739 94.314C164.195 93.534 164.813 92.934 165.593 92.514C166.373 92.082 167.243 91.866 168.203 91.866C169.163 91.866 170.033 92.082 170.813 92.514C171.593 92.934 172.205 93.534 172.649 94.314C173.105 95.094 173.333 95.994 173.333 97.014C173.333 98.034 173.099 98.934 172.631 99.714C172.175 100.494 171.551 101.1 170.759 101.532C169.979 101.952 169.103 102.162 168.131 102.162ZM168.131 99.966C168.587 99.966 169.013 99.858 169.409 99.642C169.817 99.414 170.141 99.078 170.381 98.634C170.621 98.19 170.741 97.65 170.741 97.014C170.741 96.066 170.489 95.34 169.985 94.836C169.493 94.32 168.887 94.062 168.167 94.062C167.447 94.062 166.841 94.32 166.349 94.836C165.869 95.34 165.629 96.066 165.629 97.014C165.629 97.962 165.863 98.694 166.331 99.21C166.811 99.714 167.411 99.966 168.131 99.966ZM184.721 92.028L178.547 106.716H175.865L178.025 101.748L174.029 92.028H176.855L179.429 98.994L182.039 92.028H184.721ZM193.303 94.098V98.922C193.303 99.258 193.381 99.504 193.537 99.66C193.705 99.804 193.981 99.876 194.365 99.876H195.535V102H193.951C191.827 102 190.765 100.968 190.765 98.904V94.098H189.577V92.028H190.765V89.562H193.303V92.028H195.535V94.098H193.303ZM202.963 91.884C203.719 91.884 204.391 92.052 204.979 92.388C205.567 92.712 206.023 93.198 206.347 93.846C206.683 94.482 206.851 95.25 206.851 96.15V102H204.331V96.492C204.331 95.7 204.133 95.094 203.737 94.674C203.341 94.242 202.801 94.026 202.117 94.026C201.421 94.026 200.869 94.242 200.461 94.674C200.065 95.094 199.867 95.7 199.867 96.492V102H197.347V88.68H199.867V93.27C200.191 92.838 200.623 92.502 201.163 92.262C201.703 92.01 202.303 91.884 202.963 91.884ZM218.518 96.798C218.518 97.158 218.494 97.482 218.446 97.77H211.156C211.216 98.49 211.468 99.054 211.912 99.462C212.356 99.87 212.902 100.074 213.55 100.074C214.486 100.074 215.152 99.672 215.548 98.868H218.266C217.978 99.828 217.426 100.62 216.61 101.244C215.794 101.856 214.792 102.162 213.604 102.162C212.644 102.162 211.78 101.952 211.012 101.532C210.256 101.1 209.662 100.494 209.23 99.714C208.81 98.934 208.6 98.034 208.6 97.014C208.6 95.982 208.81 95.076 209.23 94.296C209.65 93.516 210.238 92.916 210.994 92.496C211.75 92.076 212.62 91.866 213.604 91.866C214.552 91.866 215.398 92.07 216.142 92.478C216.898 92.886 217.48 93.468 217.888 94.224C218.308 94.968 218.518 95.826 218.518 96.798ZM215.908 96.078C215.896 95.43 215.662 94.914 215.206 94.53C214.75 94.134 214.192 93.936 213.532 93.936C212.908 93.936 212.38 94.128 211.948 94.512C211.528 94.884 211.27 95.406 211.174 96.078H215.908ZM227.166 93.576C227.49 93.048 227.91 92.634 228.426 92.334C228.954 92.034 229.554 91.884 230.226 91.884V94.53H229.56C228.768 94.53 228.168 94.716 227.76 95.088C227.364 95.46 227.166 96.108 227.166 97.032V102H224.646V92.028H227.166V93.576ZM233.202 90.84C232.758 90.84 232.386 90.702 232.086 90.426C231.798 90.138 231.654 89.784 231.654 89.364C231.654 88.944 231.798 88.596 232.086 88.32C232.386 88.032 232.758 87.888 233.202 87.888C233.646 87.888 234.012 88.032 234.3 88.32C234.6 88.596 234.75 88.944 234.75 89.364C234.75 89.784 234.6 90.138 234.3 90.426C234.012 90.702 233.646 90.84 233.202 90.84ZM234.444 92.028V102H231.924V92.028H234.444ZM236.285 96.978C236.285 95.97 236.483 95.076 236.879 94.296C237.287 93.516 237.839 92.916 238.535 92.496C239.231 92.076 240.005 91.866 240.857 91.866C241.505 91.866 242.123 92.01 242.711 92.298C243.299 92.574 243.767 92.946 244.115 93.414V88.68H246.671V102H244.115V100.524C243.803 101.016 243.365 101.412 242.801 101.712C242.237 102.012 241.583 102.162 240.839 102.162C239.999 102.162 239.231 101.946 238.535 101.514C237.839 101.082 237.287 100.476 236.879 99.696C236.483 98.904 236.285 97.998 236.285 96.978ZM244.133 97.014C244.133 96.402 244.013 95.88 243.773 95.448C243.533 95.004 243.209 94.668 242.801 94.44C242.393 94.2 241.955 94.08 241.487 94.08C241.019 94.08 240.587 94.194 240.191 94.422C239.795 94.65 239.471 94.986 239.219 95.43C238.979 95.862 238.859 96.378 238.859 96.978C238.859 97.578 238.979 98.106 239.219 98.562C239.471 99.006 239.795 99.348 240.191 99.588C240.599 99.828 241.031 99.948 241.487 99.948C241.955 99.948 242.393 99.834 242.801 99.606C243.209 99.366 243.533 99.03 243.773 98.598C244.013 98.154 244.133 97.626 244.133 97.014ZM258.403 96.798C258.403 97.158 258.379 97.482 258.331 97.77H251.041C251.101 98.49 251.353 99.054 251.797 99.462C252.241 99.87 252.787 100.074 253.435 100.074C254.371 100.074 255.037 99.672 255.433 98.868H258.151C257.863 99.828 257.311 100.62 256.495 101.244C255.679 101.856 254.677 102.162 253.489 102.162C252.529 102.162 251.665 101.952 250.897 101.532C250.141 101.1 249.547 100.494 249.115 99.714C248.695 98.934 248.485 98.034 248.485 97.014C248.485 95.982 248.695 95.076 249.115 94.296C249.535 93.516 250.123 92.916 250.879 92.496C251.635 92.076 252.505 91.866 253.489 91.866C254.437 91.866 255.283 92.07 256.027 92.478C256.783 92.886 257.365 93.468 257.773 94.224C258.193 94.968 258.403 95.826 258.403 96.798ZM255.793 96.078C255.781 95.43 255.547 94.914 255.091 94.53C254.635 94.134 254.077 93.936 253.417 93.936C252.793 93.936 252.265 94.128 251.833 94.512C251.413 94.884 251.155 95.406 251.059 96.078H255.793Z" fill="#169D00"/>
<path d="M68.7227 119.454L64.6367 127.266V132H62.9987V127.266L58.8947 119.454H60.7127L63.8087 125.808L66.9047 119.454H68.7227ZM74.7525 132.162C73.8285 132.162 72.9885 131.952 72.2325 131.532C71.4885 131.112 70.9005 130.518 70.4685 129.75C70.0485 128.97 69.8385 128.07 69.8385 127.05C69.8385 126.042 70.0545 125.154 70.4865 124.386C70.9305 123.606 71.5305 123.012 72.2865 122.604C73.0425 122.184 73.8885 121.974 74.8245 121.974C75.7605 121.974 76.6065 122.184 77.3625 122.604C78.1185 123.012 78.7125 123.6 79.1445 124.368C79.5885 125.136 79.8105 126.03 79.8105 127.05C79.8105 128.07 79.5825 128.97 79.1265 129.75C78.6825 130.518 78.0765 131.112 77.3085 131.532C76.5405 131.952 75.6885 132.162 74.7525 132.162ZM74.7525 130.722C75.3405 130.722 75.8925 130.584 76.4085 130.308C76.9245 130.032 77.3385 129.618 77.6505 129.066C77.9745 128.514 78.1365 127.842 78.1365 127.05C78.1365 126.258 77.9805 125.586 77.6685 125.034C77.3565 124.482 76.9485 124.074 76.4445 123.81C75.9405 123.534 75.3945 123.396 74.8065 123.396C74.2065 123.396 73.6545 123.534 73.1505 123.81C72.6585 124.074 72.2625 124.482 71.9625 125.034C71.6625 125.586 71.5125 126.258 71.5125 127.05C71.5125 127.854 71.6565 128.532 71.9445 129.084C72.2445 129.636 72.6405 130.05 73.1325 130.326C73.6245 130.59 74.1645 130.722 74.7525 130.722ZM90.7121 122.136V132H89.0741V130.542C88.7621 131.046 88.3241 131.442 87.7601 131.73C87.2081 132.006 86.5961 132.144 85.9241 132.144C85.1561 132.144 84.4661 131.988 83.8541 131.676C83.2421 131.352 82.7561 130.872 82.3961 130.236C82.0481 129.6 81.8741 128.826 81.8741 127.914V122.136H83.4941V127.698C83.4941 128.67 83.7401 129.42 84.2321 129.948C84.7241 130.464 85.3961 130.722 86.2481 130.722C87.1241 130.722 87.8141 130.452 88.3181 129.912C88.8221 129.372 89.0741 128.586 89.0741 127.554V122.136H90.7121ZM95.1158 123.738C95.4038 123.174 95.8118 122.736 96.3398 122.424C96.8798 122.112 97.5338 121.956 98.3018 121.956V123.648H97.8698C96.0338 123.648 95.1158 124.644 95.1158 126.636V132H93.4778V122.136H95.1158V123.738ZM104.379 127.032C104.379 126.024 104.583 125.142 104.991 124.386C105.399 123.618 105.957 123.024 106.665 122.604C107.385 122.184 108.189 121.974 109.077 121.974C109.845 121.974 110.559 122.154 111.219 122.514C111.879 122.862 112.383 123.324 112.731 123.9V118.68H114.387V132H112.731V130.146C112.407 130.734 111.927 131.22 111.291 131.604C110.655 131.976 109.911 132.162 109.059 132.162C108.183 132.162 107.385 131.946 106.665 131.514C105.957 131.082 105.399 130.476 104.991 129.696C104.583 128.916 104.379 128.028 104.379 127.032ZM112.731 127.05C112.731 126.306 112.581 125.658 112.281 125.106C111.981 124.554 111.573 124.134 111.057 123.846C110.553 123.546 109.995 123.396 109.383 123.396C108.771 123.396 108.213 123.54 107.709 123.828C107.205 124.116 106.803 124.536 106.503 125.088C106.203 125.64 106.053 126.288 106.053 127.032C106.053 127.788 106.203 128.448 106.503 129.012C106.803 129.564 107.205 129.99 107.709 130.29C108.213 130.578 108.771 130.722 109.383 130.722C109.995 130.722 110.553 130.578 111.057 130.29C111.573 129.99 111.981 129.564 112.281 129.012C112.581 128.448 112.731 127.794 112.731 127.05ZM118.794 123.738C119.082 123.174 119.49 122.736 120.018 122.424C120.558 122.112 121.212 121.956 121.98 121.956V123.648H121.548C119.712 123.648 118.794 124.644 118.794 126.636V132H117.156V122.136H118.794V123.738ZM124.716 120.534C124.404 120.534 124.14 120.426 123.924 120.21C123.708 119.994 123.6 119.73 123.6 119.418C123.6 119.106 123.708 118.842 123.924 118.626C124.14 118.41 124.404 118.302 124.716 118.302C125.016 118.302 125.268 118.41 125.472 118.626C125.688 118.842 125.796 119.106 125.796 119.418C125.796 119.73 125.688 119.994 125.472 120.21C125.268 120.426 125.016 120.534 124.716 120.534ZM125.508 122.136V132H123.87V122.136H125.508ZM131.972 130.488L135.032 122.136H136.778L132.908 132H131L127.13 122.136H128.894L131.972 130.488ZM147.39 126.69C147.39 127.002 147.372 127.332 147.336 127.68H139.452C139.512 128.652 139.842 129.414 140.442 129.966C141.054 130.506 141.792 130.776 142.656 130.776C143.364 130.776 143.952 130.614 144.42 130.29C144.9 129.954 145.236 129.51 145.428 128.958H147.192C146.928 129.906 146.4 130.68 145.608 131.28C144.816 131.868 143.832 132.162 142.656 132.162C141.72 132.162 140.88 131.952 140.136 131.532C139.404 131.112 138.828 130.518 138.408 129.75C137.988 128.97 137.778 128.07 137.778 127.05C137.778 126.03 137.982 125.136 138.39 124.368C138.798 123.6 139.368 123.012 140.1 122.604C140.844 122.184 141.696 121.974 142.656 121.974C143.592 121.974 144.42 122.178 145.14 122.586C145.86 122.994 146.412 123.558 146.796 124.278C147.192 124.986 147.39 125.79 147.39 126.69ZM145.698 126.348C145.698 125.724 145.56 125.19 145.284 124.746C145.008 124.29 144.63 123.948 144.15 123.72C143.682 123.48 143.16 123.36 142.584 123.36C141.756 123.36 141.048 123.624 140.46 124.152C139.884 124.68 139.554 125.412 139.47 126.348H145.698ZM151.19 123.738C151.478 123.174 151.886 122.736 152.414 122.424C152.954 122.112 153.608 121.956 154.376 121.956V123.648H153.944C152.108 123.648 151.19 124.644 151.19 126.636V132H149.552V122.136H151.19V123.738ZM160.454 127.032C160.454 126.024 160.658 125.142 161.066 124.386C161.474 123.618 162.032 123.024 162.74 122.604C163.46 122.184 164.258 121.974 165.134 121.974C165.998 121.974 166.748 122.16 167.384 122.532C168.02 122.904 168.494 123.372 168.806 123.936V122.136H170.462V132H168.806V130.164C168.482 130.74 167.996 131.22 167.348 131.604C166.712 131.976 165.968 132.162 165.116 132.162C164.24 132.162 163.448 131.946 162.74 131.514C162.032 131.082 161.474 130.476 161.066 129.696C160.658 128.916 160.454 128.028 160.454 127.032ZM168.806 127.05C168.806 126.306 168.656 125.658 168.356 125.106C168.056 124.554 167.648 124.134 167.132 123.846C166.628 123.546 166.07 123.396 165.458 123.396C164.846 123.396 164.288 123.54 163.784 123.828C163.28 124.116 162.878 124.536 162.578 125.088C162.278 125.64 162.128 126.288 162.128 127.032C162.128 127.788 162.278 128.448 162.578 129.012C162.878 129.564 163.28 129.99 163.784 130.29C164.288 130.578 164.846 130.722 165.458 130.722C166.07 130.722 166.628 130.578 167.132 130.29C167.648 129.99 168.056 129.564 168.356 129.012C168.656 128.448 168.806 127.794 168.806 127.05ZM174.868 123.738C175.156 123.174 175.564 122.736 176.092 122.424C176.632 122.112 177.286 121.956 178.054 121.956V123.648H177.622C175.786 123.648 174.868 124.644 174.868 126.636V132H173.23V122.136H174.868V123.738ZM181.583 123.738C181.871 123.174 182.279 122.736 182.807 122.424C183.347 122.112 184.001 121.956 184.769 121.956V123.648H184.337C182.501 123.648 181.583 124.644 181.583 126.636V132H179.945V122.136H181.583V123.738ZM187.505 120.534C187.193 120.534 186.929 120.426 186.713 120.21C186.497 119.994 186.389 119.73 186.389 119.418C186.389 119.106 186.497 118.842 186.713 118.626C186.929 118.41 187.193 118.302 187.505 118.302C187.805 118.302 188.057 118.41 188.261 118.626C188.477 118.842 188.585 119.106 188.585 119.418C188.585 119.73 188.477 119.994 188.261 120.21C188.057 120.426 187.805 120.534 187.505 120.534ZM188.297 122.136V132H186.659V122.136H188.297ZM194.761 130.488L197.821 122.136H199.567L195.697 132H193.789L189.919 122.136H191.683L194.761 130.488ZM210.179 126.69C210.179 127.002 210.161 127.332 210.125 127.68H202.241C202.301 128.652 202.631 129.414 203.231 129.966C203.843 130.506 204.581 130.776 205.445 130.776C206.153 130.776 206.741 130.614 207.209 130.29C207.689 129.954 208.025 129.51 208.217 128.958H209.981C209.717 129.906 209.189 130.68 208.397 131.28C207.605 131.868 206.621 132.162 205.445 132.162C204.509 132.162 203.669 131.952 202.925 131.532C202.193 131.112 201.617 130.518 201.197 129.75C200.777 128.97 200.567 128.07 200.567 127.05C200.567 126.03 200.771 125.136 201.179 124.368C201.587 123.6 202.157 123.012 202.889 122.604C203.633 122.184 204.485 121.974 205.445 121.974C206.381 121.974 207.209 122.178 207.929 122.586C208.649 122.994 209.201 123.558 209.585 124.278C209.981 124.986 210.179 125.79 210.179 126.69ZM208.487 126.348C208.487 125.724 208.349 125.19 208.073 124.746C207.797 124.29 207.419 123.948 206.939 123.72C206.471 123.48 205.949 123.36 205.373 123.36C204.545 123.36 203.837 123.624 203.249 124.152C202.673 124.68 202.343 125.412 202.259 126.348H208.487ZM215.833 132.162C215.077 132.162 214.399 132.036 213.799 131.784C213.199 131.52 212.725 131.16 212.377 130.704C212.029 130.236 211.837 129.702 211.801 129.102H213.493C213.541 129.594 213.769 129.996 214.177 130.308C214.597 130.62 215.143 130.776 215.815 130.776C216.439 130.776 216.931 130.638 217.291 130.362C217.651 130.086 217.831 129.738 217.831 129.318C217.831 128.886 217.639 128.568 217.255 128.364C216.871 128.148 216.277 127.938 215.473 127.734C214.741 127.542 214.141 127.35 213.673 127.158C213.217 126.954 212.821 126.66 212.485 126.276C212.161 125.88 211.999 125.364 211.999 124.728C211.999 124.224 212.149 123.762 212.449 123.342C212.749 122.922 213.175 122.592 213.727 122.352C214.279 122.1 214.909 121.974 215.617 121.974C216.709 121.974 217.591 122.25 218.263 122.802C218.935 123.354 219.295 124.11 219.343 125.07H217.705C217.669 124.554 217.459 124.14 217.075 123.828C216.703 123.516 216.199 123.36 215.563 123.36C214.975 123.36 214.507 123.486 214.159 123.738C213.811 123.99 213.637 124.32 213.637 124.728C213.637 125.052 213.739 125.322 213.943 125.538C214.159 125.742 214.423 125.91 214.735 126.042C215.059 126.162 215.503 126.3 216.067 126.456C216.775 126.648 217.351 126.84 217.795 127.032C218.239 127.212 218.617 127.488 218.929 127.86C219.253 128.232 219.421 128.718 219.433 129.318C219.433 129.858 219.283 130.344 218.983 130.776C218.683 131.208 218.257 131.55 217.705 131.802C217.165 132.042 216.541 132.162 215.833 132.162ZM225.932 127.032C225.932 126.024 226.136 125.142 226.544 124.386C226.952 123.618 227.51 123.024 228.218 122.604C228.938 122.184 229.736 121.974 230.612 121.974C231.476 121.974 232.226 122.16 232.862 122.532C233.498 122.904 233.972 123.372 234.284 123.936V122.136H235.94V132H234.284V130.164C233.96 130.74 233.474 131.22 232.826 131.604C232.19 131.976 231.446 132.162 230.594 132.162C229.718 132.162 228.926 131.946 228.218 131.514C227.51 131.082 226.952 130.476 226.544 129.696C226.136 128.916 225.932 128.028 225.932 127.032ZM234.284 127.05C234.284 126.306 234.134 125.658 233.834 125.106C233.534 124.554 233.126 124.134 232.61 123.846C232.106 123.546 231.548 123.396 230.936 123.396C230.324 123.396 229.766 123.54 229.262 123.828C228.758 124.116 228.356 124.536 228.056 125.088C227.756 125.64 227.606 126.288 227.606 127.032C227.606 127.788 227.756 128.448 228.056 129.012C228.356 129.564 228.758 129.99 229.262 130.29C229.766 130.578 230.324 130.722 230.936 130.722C231.548 130.722 232.106 130.578 232.61 130.29C233.126 129.99 233.534 129.564 233.834 129.012C234.134 128.448 234.284 127.794 234.284 127.05ZM243.514 121.956C244.714 121.956 245.686 122.322 246.43 123.054C247.174 123.774 247.546 124.818 247.546 126.186V132H245.926V126.42C245.926 125.436 245.68 124.686 245.188 124.17C244.696 123.642 244.024 123.378 243.172 123.378C242.308 123.378 241.618 123.648 241.102 124.188C240.598 124.728 240.346 125.514 240.346 126.546V132H238.708V122.136H240.346V123.54C240.67 123.036 241.108 122.646 241.66 122.37C242.224 122.094 242.842 121.956 243.514 121.956ZM249.61 127.032C249.61 126.024 249.814 125.142 250.222 124.386C250.63 123.618 251.188 123.024 251.896 122.604C252.616 122.184 253.42 121.974 254.308 121.974C255.076 121.974 255.79 122.154 256.45 122.514C257.11 122.862 257.614 123.324 257.962 123.9V118.68H259.618V132H257.962V130.146C257.638 130.734 257.158 131.22 256.522 131.604C255.886 131.976 255.142 132.162 254.29 132.162C253.414 132.162 252.616 131.946 251.896 131.514C251.188 131.082 250.63 130.476 250.222 129.696C249.814 128.916 249.61 128.028 249.61 127.032ZM257.962 127.05C257.962 126.306 257.812 125.658 257.512 125.106C257.212 124.554 256.804 124.134 256.288 123.846C255.784 123.546 255.226 123.396 254.614 123.396C254.002 123.396 253.444 123.54 252.94 123.828C252.436 124.116 252.034 124.536 251.734 125.088C251.434 125.64 251.284 126.288 251.284 127.032C251.284 127.788 251.434 128.448 251.734 129.012C252.034 129.564 252.436 129.99 252.94 130.29C253.444 130.578 254.002 130.722 254.614 130.722C255.226 130.722 255.784 130.578 256.288 130.29C256.804 129.99 257.212 129.564 257.512 129.012C257.812 128.448 257.962 127.794 257.962 127.05ZM77.7746 151.486V157.3C77.7746 157.78 77.8766 158.122 78.0806 158.326C78.2846 158.518 78.6386 158.614 79.1426 158.614H80.3486V160H78.8726C77.9606 160 77.2766 159.79 76.8206 159.37C76.3646 158.95 76.1366 158.26 76.1366 157.3V151.486H74.8586V150.136H76.1366V147.652H77.7746V150.136H80.3486V151.486H77.7746ZM81.7213 155.032C81.7213 154.024 81.9253 153.142 82.3333 152.386C82.7413 151.618 83.2993 151.024 84.0073 150.604C84.7273 150.184 85.5253 149.974 86.4013 149.974C87.2653 149.974 88.0153 150.16 88.6513 150.532C89.2873 150.904 89.7613 151.372 90.0733 151.936V150.136H91.7293V160H90.0733V158.164C89.7493 158.74 89.2633 159.22 88.6153 159.604C87.9793 159.976 87.2353 160.162 86.3833 160.162C85.5073 160.162 84.7153 159.946 84.0073 159.514C83.2993 159.082 82.7413 158.476 82.3333 157.696C81.9253 156.916 81.7213 156.028 81.7213 155.032ZM90.0733 155.05C90.0733 154.306 89.9233 153.658 89.6233 153.106C89.3233 152.554 88.9153 152.134 88.3993 151.846C87.8953 151.546 87.3373 151.396 86.7253 151.396C86.1133 151.396 85.5553 151.54 85.0513 151.828C84.5473 152.116 84.1453 152.536 83.8453 153.088C83.5453 153.64 83.3953 154.288 83.3953 155.032C83.3953 155.788 83.5453 156.448 83.8453 157.012C84.1453 157.564 84.5473 157.99 85.0513 158.29C85.5553 158.578 86.1133 158.722 86.7253 158.722C87.3373 158.722 87.8953 158.578 88.3993 158.29C88.9153 157.99 89.3233 157.564 89.6233 157.012C89.9233 156.448 90.0733 155.794 90.0733 155.05ZM100.005 160L96.1353 155.644V160H94.4973V146.68H96.1353V154.51L99.9333 150.136H102.219L97.5753 155.05L102.237 160H100.005ZM112.761 154.69C112.761 155.002 112.743 155.332 112.707 155.68H104.823C104.883 156.652 105.213 157.414 105.813 157.966C106.425 158.506 107.163 158.776 108.027 158.776C108.735 158.776 109.323 158.614 109.791 158.29C110.271 157.954 110.607 157.51 110.799 156.958H112.563C112.299 157.906 111.771 158.68 110.979 159.28C110.187 159.868 109.203 160.162 108.027 160.162C107.091 160.162 106.251 159.952 105.507 159.532C104.775 159.112 104.199 158.518 103.779 157.75C103.359 156.97 103.149 156.07 103.149 155.05C103.149 154.03 103.353 153.136 103.761 152.368C104.169 151.6 104.739 151.012 105.471 150.604C106.215 150.184 107.067 149.974 108.027 149.974C108.963 149.974 109.791 150.178 110.511 150.586C111.231 150.994 111.783 151.558 112.167 152.278C112.563 152.986 112.761 153.79 112.761 154.69ZM111.069 154.348C111.069 153.724 110.931 153.19 110.655 152.746C110.379 152.29 110.001 151.948 109.521 151.72C109.053 151.48 108.531 151.36 107.955 151.36C107.127 151.36 106.419 151.624 105.831 152.152C105.255 152.68 104.925 153.412 104.841 154.348H111.069ZM118.415 160.162C117.659 160.162 116.981 160.036 116.381 159.784C115.781 159.52 115.307 159.16 114.959 158.704C114.611 158.236 114.419 157.702 114.383 157.102H116.075C116.123 157.594 116.351 157.996 116.759 158.308C117.179 158.62 117.725 158.776 118.397 158.776C119.021 158.776 119.513 158.638 119.873 158.362C120.233 158.086 120.413 157.738 120.413 157.318C120.413 156.886 120.221 156.568 119.837 156.364C119.453 156.148 118.859 155.938 118.055 155.734C117.323 155.542 116.723 155.35 116.255 155.158C115.799 154.954 115.403 154.66 115.067 154.276C114.743 153.88 114.581 153.364 114.581 152.728C114.581 152.224 114.731 151.762 115.031 151.342C115.331 150.922 115.757 150.592 116.309 150.352C116.861 150.1 117.491 149.974 118.199 149.974C119.291 149.974 120.173 150.25 120.845 150.802C121.517 151.354 121.877 152.11 121.925 153.07H120.287C120.251 152.554 120.041 152.14 119.657 151.828C119.285 151.516 118.781 151.36 118.145 151.36C117.557 151.36 117.089 151.486 116.741 151.738C116.393 151.99 116.219 152.32 116.219 152.728C116.219 153.052 116.321 153.322 116.525 153.538C116.741 153.742 117.005 153.91 117.317 154.042C117.641 154.162 118.085 154.3 118.649 154.456C119.357 154.648 119.933 154.84 120.377 155.032C120.821 155.212 121.199 155.488 121.511 155.86C121.835 156.232 122.003 156.718 122.015 157.318C122.015 157.858 121.865 158.344 121.565 158.776C121.265 159.208 120.839 159.55 120.287 159.802C119.747 160.042 119.123 160.162 118.415 160.162ZM129.972 148.534C129.66 148.534 129.396 148.426 129.18 148.21C128.964 147.994 128.856 147.73 128.856 147.418C128.856 147.106 128.964 146.842 129.18 146.626C129.396 146.41 129.66 146.302 129.972 146.302C130.272 146.302 130.524 146.41 130.728 146.626C130.944 146.842 131.052 147.106 131.052 147.418C131.052 147.73 130.944 147.994 130.728 148.21C130.524 148.426 130.272 148.534 129.972 148.534ZM130.764 150.136V160H129.126V150.136H130.764ZM135.554 151.486V157.3C135.554 157.78 135.656 158.122 135.86 158.326C136.064 158.518 136.418 158.614 136.922 158.614H138.128V160H136.652C135.74 160 135.056 159.79 134.6 159.37C134.144 158.95 133.916 158.26 133.916 157.3V151.486H132.638V150.136H133.916V147.652H135.554V150.136H138.128V151.486H135.554ZM148.925 151.486H146.855V160H145.217V151.486H143.939V150.136H145.217V149.434C145.217 148.33 145.499 147.526 146.063 147.022C146.639 146.506 147.557 146.248 148.817 146.248V147.616C148.097 147.616 147.587 147.76 147.287 148.048C146.999 148.324 146.855 148.786 146.855 149.434V150.136H148.925V151.486ZM152.473 151.738C152.761 151.174 153.169 150.736 153.697 150.424C154.237 150.112 154.891 149.956 155.659 149.956V151.648H155.227C153.391 151.648 152.473 152.644 152.473 154.636V160H150.835V150.136H152.473V151.738ZM161.852 160.162C160.928 160.162 160.088 159.952 159.332 159.532C158.588 159.112 158 158.518 157.568 157.75C157.148 156.97 156.938 156.07 156.938 155.05C156.938 154.042 157.154 153.154 157.586 152.386C158.03 151.606 158.63 151.012 159.386 150.604C160.142 150.184 160.988 149.974 161.924 149.974C162.86 149.974 163.706 150.184 164.462 150.604C165.218 151.012 165.812 151.6 166.244 152.368C166.688 153.136 166.91 154.03 166.91 155.05C166.91 156.07 166.682 156.97 166.226 157.75C165.782 158.518 165.176 159.112 164.408 159.532C163.64 159.952 162.788 160.162 161.852 160.162ZM161.852 158.722C162.44 158.722 162.992 158.584 163.508 158.308C164.024 158.032 164.438 157.618 164.75 157.066C165.074 156.514 165.236 155.842 165.236 155.05C165.236 154.258 165.08 153.586 164.768 153.034C164.456 152.482 164.048 152.074 163.544 151.81C163.04 151.534 162.494 151.396 161.906 151.396C161.306 151.396 160.754 151.534 160.25 151.81C159.758 152.074 159.362 152.482 159.062 153.034C158.762 153.586 158.612 154.258 158.612 155.05C158.612 155.854 158.756 156.532 159.044 157.084C159.344 157.636 159.74 158.05 160.232 158.326C160.724 158.59 161.264 158.722 161.852 158.722ZM180.926 149.956C181.694 149.956 182.378 150.118 182.978 150.442C183.578 150.754 184.052 151.228 184.4 151.864C184.748 152.5 184.922 153.274 184.922 154.186V160H183.302V154.42C183.302 153.436 183.056 152.686 182.564 152.17C182.084 151.642 181.43 151.378 180.602 151.378C179.75 151.378 179.072 151.654 178.568 152.206C178.064 152.746 177.812 153.532 177.812 154.564V160H176.192V154.42C176.192 153.436 175.946 152.686 175.454 152.17C174.974 151.642 174.32 151.378 173.492 151.378C172.64 151.378 171.962 151.654 171.458 152.206C170.954 152.746 170.702 153.532 170.702 154.564V160H169.064V150.136H170.702V151.558C171.026 151.042 171.458 150.646 171.998 150.37C172.55 150.094 173.156 149.956 173.816 149.956C174.644 149.956 175.376 150.142 176.012 150.514C176.648 150.886 177.122 151.432 177.434 152.152C177.71 151.456 178.166 150.916 178.802 150.532C179.438 150.148 180.146 149.956 180.926 149.956ZM194.405 151.486V157.3C194.405 157.78 194.507 158.122 194.711 158.326C194.915 158.518 195.269 158.614 195.773 158.614H196.979V160H195.503C194.591 160 193.907 159.79 193.451 159.37C192.995 158.95 192.767 158.26 192.767 157.3V151.486H191.489V150.136H192.767V147.652H194.405V150.136H196.979V151.486H194.405ZM203.86 149.956C204.604 149.956 205.276 150.118 205.876 150.442C206.476 150.754 206.944 151.228 207.28 151.864C207.628 152.5 207.802 153.274 207.802 154.186V160H206.182V154.42C206.182 153.436 205.936 152.686 205.444 152.17C204.952 151.642 204.28 151.378 203.428 151.378C202.564 151.378 201.874 151.648 201.358 152.188C200.854 152.728 200.602 153.514 200.602 154.546V160H198.964V146.68H200.602V151.54C200.926 151.036 201.37 150.646 201.934 150.37C202.51 150.094 203.152 149.956 203.86 149.956ZM219.478 154.69C219.478 155.002 219.46 155.332 219.424 155.68H211.54C211.6 156.652 211.93 157.414 212.53 157.966C213.142 158.506 213.88 158.776 214.744 158.776C215.452 158.776 216.04 158.614 216.508 158.29C216.988 157.954 217.324 157.51 217.516 156.958H219.28C219.016 157.906 218.488 158.68 217.696 159.28C216.904 159.868 215.92 160.162 214.744 160.162C213.808 160.162 212.968 159.952 212.224 159.532C211.492 159.112 210.916 158.518 210.496 157.75C210.076 156.97 209.866 156.07 209.866 155.05C209.866 154.03 210.07 153.136 210.478 152.368C210.886 151.6 211.456 151.012 212.188 150.604C212.932 150.184 213.784 149.974 214.744 149.974C215.68 149.974 216.508 150.178 217.228 150.586C217.948 150.994 218.5 151.558 218.884 152.278C219.28 152.986 219.478 153.79 219.478 154.69ZM217.786 154.348C217.786 153.724 217.648 153.19 217.372 152.746C217.096 152.29 216.718 151.948 216.238 151.72C215.77 151.48 215.248 151.36 214.672 151.36C213.844 151.36 213.136 151.624 212.548 152.152C211.972 152.68 211.642 153.412 211.558 154.348H217.786ZM223.278 151.738C223.566 151.174 223.974 150.736 224.502 150.424C225.042 150.112 225.696 149.956 226.464 149.956V151.648H226.032C224.196 151.648 223.278 152.644 223.278 154.636V160H221.64V150.136H223.278V151.738ZM237.355 154.69C237.355 155.002 237.337 155.332 237.301 155.68H229.417C229.477 156.652 229.807 157.414 230.407 157.966C231.019 158.506 231.757 158.776 232.621 158.776C233.329 158.776 233.917 158.614 234.385 158.29C234.865 157.954 235.201 157.51 235.393 156.958H237.157C236.893 157.906 236.365 158.68 235.573 159.28C234.781 159.868 233.797 160.162 232.621 160.162C231.685 160.162 230.845 159.952 230.101 159.532C229.369 159.112 228.793 158.518 228.373 157.75C227.953 156.97 227.743 156.07 227.743 155.05C227.743 154.03 227.947 153.136 228.355 152.368C228.763 151.6 229.333 151.012 230.065 150.604C230.809 150.184 231.661 149.974 232.621 149.974C233.557 149.974 234.385 150.178 235.105 150.586C235.825 150.994 236.377 151.558 236.761 152.278C237.157 152.986 237.355 153.79 237.355 154.69ZM235.663 154.348C235.663 153.724 235.525 153.19 235.249 152.746C234.973 152.29 234.595 151.948 234.115 151.72C233.647 151.48 233.125 151.36 232.549 151.36C231.721 151.36 231.013 151.624 230.425 152.152C229.849 152.68 229.519 153.412 229.435 154.348H235.663ZM246.314 151.486V157.3C246.314 157.78 246.416 158.122 246.62 158.326C246.824 158.518 247.178 158.614 247.682 158.614H248.888V160H247.412C246.5 160 245.816 159.79 245.36 159.37C244.904 158.95 244.676 158.26 244.676 157.3V151.486H243.398V150.136H244.676V147.652H246.314V150.136H248.888V151.486H246.314ZM255.174 160.162C254.25 160.162 253.41 159.952 252.654 159.532C251.91 159.112 251.322 158.518 250.89 157.75C250.47 156.97 250.26 156.07 250.26 155.05C250.26 154.042 250.476 153.154 250.908 152.386C251.352 151.606 251.952 151.012 252.708 150.604C253.464 150.184 254.31 149.974 255.246 149.974C256.182 149.974 257.028 150.184 257.784 150.604C258.54 151.012 259.134 151.6 259.566 152.368C260.01 153.136 260.232 154.03 260.232 155.05C260.232 156.07 260.004 156.97 259.548 157.75C259.104 158.518 258.498 159.112 257.73 159.532C256.962 159.952 256.11 160.162 255.174 160.162ZM255.174 158.722C255.762 158.722 256.314 158.584 256.83 158.308C257.346 158.032 257.76 157.618 258.072 157.066C258.396 156.514 258.558 155.842 258.558 155.05C258.558 154.258 258.402 153.586 258.09 153.034C257.778 152.482 257.37 152.074 256.866 151.81C256.362 151.534 255.816 151.396 255.228 151.396C254.628 151.396 254.076 151.534 253.572 151.81C253.08 152.074 252.684 152.482 252.384 153.034C252.084 153.586 251.934 154.258 251.934 155.05C251.934 155.854 252.078 156.532 252.366 157.084C252.666 157.636 253.062 158.05 253.554 158.326C254.046 158.59 254.586 158.722 255.174 158.722ZM124.79 178.136L118.85 192.644H117.158L119.102 187.892L115.124 178.136H116.942L120.038 186.128L123.098 178.136H124.79ZM130.739 188.162C129.815 188.162 128.975 187.952 128.219 187.532C127.475 187.112 126.887 186.518 126.455 185.75C126.035 184.97 125.825 184.07 125.825 183.05C125.825 182.042 126.041 181.154 126.473 180.386C126.917 179.606 127.517 179.012 128.273 178.604C129.029 178.184 129.875 177.974 130.811 177.974C131.747 177.974 132.593 178.184 133.349 178.604C134.105 179.012 134.699 179.6 135.131 180.368C135.575 181.136 135.797 182.03 135.797 183.05C135.797 184.07 135.569 184.97 135.113 185.75C134.669 186.518 134.063 187.112 133.295 187.532C132.527 187.952 131.675 188.162 130.739 188.162ZM130.739 186.722C131.327 186.722 131.879 186.584 132.395 186.308C132.911 186.032 133.325 185.618 133.637 185.066C133.961 184.514 134.123 183.842 134.123 183.05C134.123 182.258 133.967 181.586 133.655 181.034C133.343 180.482 132.935 180.074 132.431 179.81C131.927 179.534 131.381 179.396 130.793 179.396C130.193 179.396 129.641 179.534 129.137 179.81C128.645 180.074 128.249 180.482 127.949 181.034C127.649 181.586 127.499 182.258 127.499 183.05C127.499 183.854 127.643 184.532 127.931 185.084C128.231 185.636 128.627 186.05 129.119 186.326C129.611 186.59 130.151 186.722 130.739 186.722ZM146.698 178.136V188H145.06V186.542C144.748 187.046 144.31 187.442 143.746 187.73C143.194 188.006 142.582 188.144 141.91 188.144C141.142 188.144 140.452 187.988 139.84 187.676C139.228 187.352 138.742 186.872 138.382 186.236C138.034 185.6 137.86 184.826 137.86 183.914V178.136H139.48V183.698C139.48 184.67 139.726 185.42 140.218 185.948C140.71 186.464 141.382 186.722 142.234 186.722C143.11 186.722 143.8 186.452 144.304 185.912C144.808 185.372 145.06 184.586 145.06 183.554V178.136H146.698ZM151.102 179.738C151.39 179.174 151.798 178.736 152.326 178.424C152.866 178.112 153.52 177.956 154.288 177.956V179.648H153.856C152.02 179.648 151.102 180.644 151.102 182.636V188H149.464V178.136H151.102V179.738ZM160.366 183.032C160.366 182.024 160.57 181.142 160.978 180.386C161.386 179.618 161.944 179.024 162.652 178.604C163.372 178.184 164.176 177.974 165.064 177.974C165.832 177.974 166.546 178.154 167.206 178.514C167.866 178.862 168.37 179.324 168.718 179.9V174.68H170.374V188H168.718V186.146C168.394 186.734 167.914 187.22 167.278 187.604C166.642 187.976 165.898 188.162 165.046 188.162C164.17 188.162 163.372 187.946 162.652 187.514C161.944 187.082 161.386 186.476 160.978 185.696C160.57 184.916 160.366 184.028 160.366 183.032ZM168.718 183.05C168.718 182.306 168.568 181.658 168.268 181.106C167.968 180.554 167.56 180.134 167.044 179.846C166.54 179.546 165.982 179.396 165.37 179.396C164.758 179.396 164.2 179.54 163.696 179.828C163.192 180.116 162.79 180.536 162.49 181.088C162.19 181.64 162.04 182.288 162.04 183.032C162.04 183.788 162.19 184.448 162.49 185.012C162.79 185.564 163.192 185.99 163.696 186.29C164.2 186.578 164.758 186.722 165.37 186.722C165.982 186.722 166.54 186.578 167.044 186.29C167.56 185.99 167.968 185.564 168.268 185.012C168.568 184.448 168.718 183.794 168.718 183.05ZM182.142 182.69C182.142 183.002 182.124 183.332 182.088 183.68H174.204C174.264 184.652 174.594 185.414 175.194 185.966C175.806 186.506 176.544 186.776 177.408 186.776C178.116 186.776 178.704 186.614 179.172 186.29C179.652 185.954 179.988 185.51 180.18 184.958H181.944C181.68 185.906 181.152 186.68 180.36 187.28C179.568 187.868 178.584 188.162 177.408 188.162C176.472 188.162 175.632 187.952 174.888 187.532C174.156 187.112 173.58 186.518 173.16 185.75C172.74 184.97 172.53 184.07 172.53 183.05C172.53 182.03 172.734 181.136 173.142 180.368C173.55 179.6 174.12 179.012 174.852 178.604C175.596 178.184 176.448 177.974 177.408 177.974C178.344 177.974 179.172 178.178 179.892 178.586C180.612 178.994 181.164 179.558 181.548 180.278C181.944 180.986 182.142 181.79 182.142 182.69ZM180.45 182.348C180.45 181.724 180.312 181.19 180.036 180.746C179.76 180.29 179.382 179.948 178.902 179.72C178.434 179.48 177.912 179.36 177.336 179.36C176.508 179.36 175.8 179.624 175.212 180.152C174.636 180.68 174.306 181.412 174.222 182.348H180.45ZM187.796 188.162C187.04 188.162 186.362 188.036 185.762 187.784C185.162 187.52 184.688 187.16 184.34 186.704C183.992 186.236 183.8 185.702 183.764 185.102H185.456C185.504 185.594 185.732 185.996 186.14 186.308C186.56 186.62 187.106 186.776 187.778 186.776C188.402 186.776 188.894 186.638 189.254 186.362C189.614 186.086 189.794 185.738 189.794 185.318C189.794 184.886 189.602 184.568 189.218 184.364C188.834 184.148 188.24 183.938 187.436 183.734C186.704 183.542 186.104 183.35 185.636 183.158C185.18 182.954 184.784 182.66 184.448 182.276C184.124 181.88 183.962 181.364 183.962 180.728C183.962 180.224 184.112 179.762 184.412 179.342C184.712 178.922 185.138 178.592 185.69 178.352C186.242 178.1 186.872 177.974 187.58 177.974C188.672 177.974 189.554 178.25 190.226 178.802C190.898 179.354 191.258 180.11 191.306 181.07H189.668C189.632 180.554 189.422 180.14 189.038 179.828C188.666 179.516 188.162 179.36 187.526 179.36C186.938 179.36 186.47 179.486 186.122 179.738C185.774 179.99 185.6 180.32 185.6 180.728C185.6 181.052 185.702 181.322 185.906 181.538C186.122 181.742 186.386 181.91 186.698 182.042C187.022 182.162 187.466 182.3 188.03 182.456C188.738 182.648 189.314 182.84 189.758 183.032C190.202 183.212 190.58 183.488 190.892 183.86C191.216 184.232 191.384 184.718 191.396 185.318C191.396 185.858 191.246 186.344 190.946 186.776C190.646 187.208 190.22 187.55 189.668 187.802C189.128 188.042 188.504 188.162 187.796 188.162ZM195.706 179.486V185.3C195.706 185.78 195.808 186.122 196.012 186.326C196.216 186.518 196.57 186.614 197.074 186.614H198.28V188H196.804C195.892 188 195.208 187.79 194.752 187.37C194.296 186.95 194.068 186.26 194.068 185.3V179.486H192.79V178.136H194.068V175.652H195.706V178.136H198.28V179.486H195.706ZM201.111 176.534C200.799 176.534 200.535 176.426 200.319 176.21C200.103 175.994 199.995 175.73 199.995 175.418C199.995 175.106 200.103 174.842 200.319 174.626C200.535 174.41 200.799 174.302 201.111 174.302C201.411 174.302 201.663 174.41 201.867 174.626C202.083 174.842 202.191 175.106 202.191 175.418C202.191 175.73 202.083 175.994 201.867 176.21C201.663 176.426 201.411 176.534 201.111 176.534ZM201.903 178.136V188H200.265V178.136H201.903ZM209.501 177.956C210.701 177.956 211.673 178.322 212.417 179.054C213.161 179.774 213.533 180.818 213.533 182.186V188H211.913V182.42C211.913 181.436 211.667 180.686 211.175 180.17C210.683 179.642 210.011 179.378 209.159 179.378C208.295 179.378 207.605 179.648 207.089 180.188C206.585 180.728 206.333 181.514 206.333 182.546V188H204.695V178.136H206.333V179.54C206.657 179.036 207.095 178.646 207.647 178.37C208.211 178.094 208.829 177.956 209.501 177.956ZM215.596 183.032C215.596 182.024 215.8 181.142 216.208 180.386C216.616 179.618 217.174 179.024 217.882 178.604C218.602 178.184 219.4 177.974 220.276 177.974C221.14 177.974 221.89 178.16 222.526 178.532C223.162 178.904 223.636 179.372 223.948 179.936V178.136H225.604V188H223.948V186.164C223.624 186.74 223.138 187.22 222.49 187.604C221.854 187.976 221.11 188.162 220.258 188.162C219.382 188.162 218.59 187.946 217.882 187.514C217.174 187.082 216.616 186.476 216.208 185.696C215.8 184.916 215.596 184.028 215.596 183.032ZM223.948 183.05C223.948 182.306 223.798 181.658 223.498 181.106C223.198 180.554 222.79 180.134 222.274 179.846C221.77 179.546 221.212 179.396 220.6 179.396C219.988 179.396 219.43 179.54 218.926 179.828C218.422 180.116 218.02 180.536 217.72 181.088C217.42 181.64 217.27 182.288 217.27 183.032C217.27 183.788 217.42 184.448 217.72 185.012C218.02 185.564 218.422 185.99 218.926 186.29C219.43 186.578 219.988 186.722 220.6 186.722C221.212 186.722 221.77 186.578 222.274 186.29C222.79 185.99 223.198 185.564 223.498 185.012C223.798 184.448 223.948 183.794 223.948 183.05ZM230.37 179.486V185.3C230.37 185.78 230.472 186.122 230.676 186.326C230.88 186.518 231.234 186.614 231.738 186.614H232.944V188H231.468C230.556 188 229.872 187.79 229.416 187.37C228.96 186.95 228.732 186.26 228.732 185.3V179.486H227.454V178.136H228.732V175.652H230.37V178.136H232.944V179.486H230.37ZM235.775 176.534C235.463 176.534 235.199 176.426 234.983 176.21C234.767 175.994 234.659 175.73 234.659 175.418C234.659 175.106 234.767 174.842 234.983 174.626C235.199 174.41 235.463 174.302 235.775 174.302C236.075 174.302 236.327 174.41 236.531 174.626C236.747 174.842 236.855 175.106 236.855 175.418C236.855 175.73 236.747 175.994 236.531 176.21C236.327 176.426 236.075 176.534 235.775 176.534ZM236.567 178.136V188H234.929V178.136H236.567ZM243.661 188.162C242.737 188.162 241.897 187.952 241.141 187.532C240.397 187.112 239.809 186.518 239.377 185.75C238.957 184.97 238.747 184.07 238.747 183.05C238.747 182.042 238.963 181.154 239.395 180.386C239.839 179.606 240.439 179.012 241.195 178.604C241.951 178.184 242.797 177.974 243.733 177.974C244.669 177.974 245.515 178.184 246.271 178.604C247.027 179.012 247.621 179.6 248.053 180.368C248.497 181.136 248.719 182.03 248.719 183.05C248.719 184.07 248.491 184.97 248.035 185.75C247.591 186.518 246.985 187.112 246.217 187.532C245.449 187.952 244.597 188.162 243.661 188.162ZM243.661 186.722C244.249 186.722 244.801 186.584 245.317 186.308C245.833 186.032 246.247 185.618 246.559 185.066C246.883 184.514 247.045 183.842 247.045 183.05C247.045 182.258 246.889 181.586 246.577 181.034C246.265 180.482 245.857 180.074 245.353 179.81C244.849 179.534 244.303 179.396 243.715 179.396C243.115 179.396 242.563 179.534 242.059 179.81C241.567 180.074 241.171 180.482 240.871 181.034C240.571 181.586 240.421 182.258 240.421 183.05C240.421 183.854 240.565 184.532 240.853 185.084C241.153 185.636 241.549 186.05 242.041 186.326C242.533 186.59 243.073 186.722 243.661 186.722ZM255.678 177.956C256.878 177.956 257.85 178.322 258.594 179.054C259.338 179.774 259.71 180.818 259.71 182.186V188H258.09V182.42C258.09 181.436 257.844 180.686 257.352 180.17C256.86 179.642 256.188 179.378 255.336 179.378C254.472 179.378 253.782 179.648 253.266 180.188C252.762 180.728 252.51 181.514 252.51 182.546V188H250.872V178.136H252.51V179.54C252.834 179.036 253.272 178.646 253.824 178.37C254.388 178.094 255.006 177.956 255.678 177.956Z" fill="#02010A"/>
</svg>
