<svg width="24" height="24" viewBox="0 0 24 24" fill="none" xmlns="http://www.w3.org/2000/svg">
<path d="M12 6.75C10.9616 6.75 9.94661 7.05791 9.08326 7.63478C8.2199 8.21166 7.54699 9.0316 7.14963 9.99091C6.75227 10.9502 6.64831 12.0058 6.85088 13.0242C7.05345 14.0426 7.55346 14.9781 8.28769 15.7123C9.02192 16.4465 9.95738 16.9466 10.9758 17.1491C11.9942 17.3517 13.0498 17.2477 14.0091 16.8504C14.9684 16.453 15.7883 15.7801 16.3652 14.9167C16.9421 14.0534 17.25 13.0384 17.25 12C17.2486 10.6081 16.695 9.27354 15.7107 8.28929C14.7265 7.30504 13.3919 6.75145 12 6.75ZM12 14.625C11.4808 14.625 10.9733 14.471 10.5416 14.1826C10.1099 13.8942 9.7735 13.4842 9.57482 13.0045C9.37614 12.5249 9.32415 11.9971 9.42544 11.4879C9.52672 10.9787 9.77673 10.511 10.1438 10.1438C10.511 9.77673 10.9787 9.52672 11.4879 9.42544C11.9971 9.32415 12.5249 9.37614 13.0045 9.57482C13.4842 9.7735 13.8942 10.1099 14.1826 10.5416C14.471 10.9733 14.625 11.4808 14.625 12C14.625 12.6962 14.3484 13.3639 13.8562 13.8562C13.3639 14.3484 12.6962 14.625 12 14.625ZM17.25 0.1875H6.75C5.01014 0.189526 3.34212 0.881581 2.11185 2.11185C0.881581 3.34212 0.189526 5.01014 0.1875 6.75V17.25C0.189526 18.9899 0.881581 20.6579 2.11185 21.8881C3.34212 23.1184 5.01014 23.8105 6.75 23.8125H17.25C18.9899 23.8105 20.6579 23.1184 21.8881 21.8881C23.1184 20.6579 23.8105 18.9899 23.8125 17.25V6.75C23.8105 5.01014 23.1184 3.34212 21.8881 2.11185C20.6579 0.881581 18.9899 0.189526 17.25 0.1875ZM21.1875 17.25C21.1875 18.2943 20.7727 19.2958 20.0342 20.0342C19.2958 20.7727 18.2943 21.1875 17.25 21.1875H6.75C5.70571 21.1875 4.70419 20.7727 3.96577 20.0342C3.22734 19.2958 2.8125 18.2943 2.8125 17.25V6.75C2.8125 5.70571 3.22734 4.70419 3.96577 3.96577C4.70419 3.22734 5.70571 2.8125 6.75 2.8125H17.25C18.2943 2.8125 19.2958 3.22734 20.0342 3.96577C20.7727 4.70419 21.1875 5.70571 21.1875 6.75V17.25ZM19.4375 6.3125C19.4375 6.65862 19.3349 6.99696 19.1426 7.28475C18.9503 7.57253 18.677 7.79684 18.3572 7.92929C18.0374 8.06174 17.6856 8.0964 17.3461 8.02887C17.0066 7.96135 16.6948 7.79468 16.4501 7.54994C16.2053 7.30519 16.0386 6.99337 15.9711 6.65391C15.9036 6.31444 15.9383 5.96257 16.0707 5.6428C16.2032 5.32303 16.4275 5.04972 16.7153 4.85743C17.003 4.66514 17.3414 4.5625 17.6875 4.5625C18.1516 4.5625 18.5967 4.74687 18.9249 5.07506C19.2531 5.40325 19.4375 5.84837 19.4375 6.3125Z" fill="white"/>
</svg>
