<svg width="38" height="38" viewBox="0 0 38 38" fill="none" xmlns="http://www.w3.org/2000/svg">
<path d="M18.8109 22.9721H18.894C20.6752 23.0196 22.1002 24.4684 22.1002 26.2496C22.1002 27.7696 21.0671 29.0402 19.6659 29.4202V30.7502C19.6659 31.2252 19.2859 31.6052 18.8109 31.6052C18.3359 31.6052 17.9559 31.2252 17.9559 30.7502V29.4202C17.2581 29.2326 16.6416 28.8204 16.2016 28.2473C15.7615 27.6742 15.5225 26.9721 15.5215 26.2496C15.5215 25.7746 15.9015 25.3946 16.3765 25.3946C16.8515 25.3946 17.2315 25.7746 17.2315 26.2496C17.2315 27.1284 17.9321 27.829 18.799 27.829C19.6659 27.829 20.3784 27.1165 20.3784 26.2496C20.3784 25.3827 19.6659 24.6702 18.799 24.6702H18.7159C17.8616 24.6471 17.05 24.2917 16.4536 23.6797C15.8571 23.0677 15.5227 22.2473 15.5215 21.3927C15.5215 19.8727 16.5546 18.6021 17.9559 18.2221V16.8921C17.9559 16.4171 18.3359 16.0371 18.8109 16.0371C19.2859 16.0371 19.6659 16.4171 19.6659 16.8921V18.2221C21.0671 18.6021 22.1002 19.8727 22.1002 21.3927C22.1002 21.8677 21.7202 22.2477 21.2452 22.2477C20.7702 22.2477 20.3902 21.8677 20.3902 21.3927C20.3902 20.5259 19.6777 19.8134 18.8109 19.8134C17.944 19.8134 17.2315 20.5259 17.2315 21.3927C17.2315 22.2596 17.944 22.9721 18.8109 22.9721Z" fill="#1439BC"/>
<path d="M12.5067 6.05623L15.8151 9.92748L15.4577 10.3265C8.64856 11.8536 3.5625 17.9348 3.5625 25.2047C3.5625 31.5958 8.7495 36.7828 15.1406 36.7828H22.4675C28.8586 36.7828 34.0456 31.597 34.0456 25.2059C34.0575 17.9348 28.9714 11.8536 22.1623 10.3265C22.19 10.0755 22.1446 9.82195 22.0317 9.59616L24.8461 6.37448L25.0278 6.09423C25.2399 5.63149 25.2942 5.11187 25.1822 4.61529C25.0703 4.1187 24.7983 3.67265 24.4081 3.34572C24.0179 3.0188 23.5311 2.82912 23.0225 2.80585C22.514 2.78257 22.0119 2.927 21.5935 3.21691L20.5924 2.02941C20.3679 1.77812 20.0929 1.57696 19.7854 1.43905C19.4779 1.30114 19.1448 1.22957 18.8078 1.22901C18.4708 1.22845 18.1374 1.29891 17.8294 1.4358C17.5215 1.57268 17.2458 1.77293 17.0204 2.02348L15.9719 3.19435C15.5545 2.89841 15.0513 2.74822 14.54 2.76703C14.0287 2.78583 13.5379 2.97258 13.1434 3.29838C12.7489 3.62419 12.4728 4.07089 12.3577 4.56941C12.2426 5.06793 12.295 5.59047 12.5067 6.05623ZM17.0181 7.70091L15.0041 5.37341C15.472 5.59887 16.0014 5.66289 16.5095 5.55546C17.0177 5.44803 17.4759 5.17521 17.8125 4.77966L18.7625 3.54704L19.817 4.79629C20.1458 5.17864 20.5893 5.44451 21.0815 5.55429C21.5737 5.66407 22.0882 5.61187 22.5483 5.40548L20.5437 7.70091H17.0181ZM5.9375 25.2047C5.9375 18.0939 11.6993 12.3322 18.81 12.3322C25.9207 12.3322 31.6825 18.0939 31.6706 25.2023V25.2047C31.6697 27.6452 30.6998 29.9855 28.974 31.7112C27.2483 33.4369 24.908 34.4068 22.4675 34.4078H15.1406C12.7001 34.4068 10.3598 33.4369 8.63408 31.7112C6.90836 29.9855 5.93844 27.6452 5.9375 25.2047Z" fill="#1439BC"/>
</svg>
