<svg width="28" height="28" viewBox="0 0 28 28" fill="none" xmlns="http://www.w3.org/2000/svg">
<path d="M27.0574 7.54075C26.9912 7.38086 26.8791 7.24418 26.7352 7.148C26.5914 7.05183 26.4222 7.00048 26.2491 7.00044H22.9209C22.4555 6.20876 21.7933 5.55096 20.9985 5.09098C20.2037 4.631 19.3034 4.3845 18.3851 4.37544C17.701 4.36647 17.0219 4.49441 16.388 4.75175C15.7541 5.00908 15.178 5.39061 14.6937 5.87388C14.1952 6.36303 13.7996 6.9469 13.5301 7.59116C13.2605 8.23542 13.1225 8.92707 13.1241 9.62544V10.2915C8.72071 9.12997 5.11899 5.54794 5.08071 5.50966C4.96332 5.39123 4.81453 5.30881 4.65187 5.27211C4.4892 5.2354 4.31944 5.24594 4.16257 5.30248C4.00569 5.35903 3.86824 5.45922 3.76641 5.59126C3.66457 5.7233 3.60258 5.88169 3.58774 6.04779C3.11633 11.2748 4.63446 14.7726 5.99399 16.7862C6.65689 17.7816 7.46331 18.6736 8.38711 19.4331C6.72133 21.3504 4.09852 22.3578 4.07008 22.3687C3.94661 22.415 3.83519 22.4885 3.74414 22.5839C3.65309 22.6792 3.58477 22.7939 3.54427 22.9194C3.50378 23.0449 3.49217 23.1779 3.5103 23.3085C3.52843 23.4391 3.57584 23.5639 3.64899 23.6736C3.73102 23.7961 4.05915 24.2259 4.86086 24.6273C5.8518 25.1239 7.16102 25.3754 8.74915 25.3754C16.4787 25.3754 22.9373 19.4233 23.5968 11.7648L26.8682 8.4945C26.9905 8.37207 27.0738 8.2161 27.1075 8.04633C27.1412 7.87656 27.1238 7.70062 27.0574 7.54075ZM22.1356 10.7575C21.9855 10.9079 21.8953 11.1077 21.8818 11.3197C21.4366 18.2201 15.6704 23.6254 8.74915 23.6254C7.59414 23.6254 6.7804 23.4723 6.20946 23.2886C7.46836 22.605 9.22383 21.4292 10.3526 19.7361C10.4188 19.6365 10.464 19.5244 10.4852 19.4067C10.5065 19.2891 10.5033 19.1683 10.4761 19.0518C10.4488 18.9354 10.398 18.8258 10.3267 18.7298C10.2554 18.6337 10.1652 18.5534 10.0616 18.4936C10.0102 18.464 5.25899 15.6126 5.24915 7.99357C6.99915 9.41544 10.1984 11.6215 13.8537 12.2362C13.979 12.2573 14.1073 12.2509 14.2299 12.2174C14.3524 12.1839 14.4662 12.1241 14.5633 12.0422C14.6604 11.9603 14.7385 11.8582 14.7922 11.7431C14.8459 11.6279 14.8738 11.5025 14.8741 11.3754V9.62544C14.8732 9.15868 14.9656 8.69644 15.1459 8.26592C15.3262 7.8354 15.5908 7.4453 15.9241 7.11857C16.2437 6.79842 16.6242 6.54559 17.0431 6.37501C17.462 6.20443 17.9109 6.11957 18.3632 6.12544C19.7479 6.14294 21.0418 6.98732 21.5832 8.22654C21.6515 8.38234 21.7636 8.51487 21.906 8.60791C22.0484 8.70096 22.2148 8.75049 22.3849 8.75044H24.1349L22.1356 10.7575Z" fill="white"/>
</svg>
