<svg width="33" height="36" viewBox="0 0 33 36" fill="none" xmlns="http://www.w3.org/2000/svg">
<g clip-path="url(#clip0_131_1274)">
<path d="M15.2159 17.1626L0.142578 32.9549C0.31185 33.5548 0.616037 34.108 1.03189 34.5723C1.44773 35.0366 1.96424 35.3997 2.54191 35.6338C3.11958 35.8678 3.74312 35.9668 4.36488 35.9229C4.98664 35.8791 5.59014 35.6937 6.12926 35.3809L23.0896 25.7214L15.2159 17.1626Z" fill="#EA4335"/>
<path d="M30.457 14.4783L23.1228 10.2773L14.8672 17.5219L23.1563 25.6988L30.4347 21.5429C31.0795 21.2053 31.6196 20.6976 31.9964 20.075C32.3732 19.4523 32.5724 18.7384 32.5724 18.0105C32.5724 17.2827 32.3732 16.5688 31.9964 15.9461C31.6196 15.3234 31.0795 14.8158 30.4347 14.4781H30.4572L30.457 14.4783Z" fill="#FBBC04"/>
<path d="M0.142696 2.98779C0.0515858 3.32462 0.00623158 3.67218 0.00785456 4.02111V31.9214C0.00879919 32.2702 0.0541098 32.6174 0.142696 32.9548L15.7327 17.5669L0.142696 2.98779Z" fill="#4285F4"/>
<path d="M15.3282 17.9713L23.1233 10.2773L6.18549 0.572828C5.54822 0.199607 4.82341 0.0019568 4.0849 7.80174e-06C2.2522 -0.00355404 0.640981 1.21281 0.142578 2.97656L15.3282 17.9713Z" fill="#34A853"/>
</g>
<defs>
<clipPath id="clip0_131_1274">
<rect width="32.58" height="36" fill="white"/>
</clipPath>
</defs>
</svg>
