<svg width="38" height="38" viewBox="0 0 38 38" fill="none" xmlns="http://www.w3.org/2000/svg">
<path d="M19 2.375L4.75 7.125V21.375C4.75 29.2459 11.1291 35.625 19 35.625C26.8709 35.625 33.25 29.2459 33.25 21.375V7.125L19 2.375ZM30.5781 21.375C30.5781 27.7689 25.3939 32.9531 19 32.9531C12.6061 32.9531 7.42188 27.7689 7.42188 21.375V9.12891L19 5.04688L30.5781 9.12891V21.375Z" fill="#2E396D"/>
<path d="M14.043 17.6304C13.9192 17.506 13.772 17.4073 13.61 17.34C13.4479 17.2726 13.2741 17.238 13.0986 17.238C12.9231 17.238 12.7493 17.2726 12.5872 17.34C12.4252 17.4073 12.278 17.506 12.1542 17.6304C12.0298 17.7542 11.9311 17.9014 11.8637 18.0635C11.7964 18.2256 11.7617 18.3993 11.7617 18.5749C11.7617 18.7504 11.7964 18.9241 11.8637 19.0862C11.9311 19.2483 12.0298 19.3955 12.1542 19.5193L16.9561 24.3212L17.0341 24.3992C17.1512 24.5165 17.2903 24.6096 17.4434 24.6731C17.5966 24.7366 17.7607 24.7693 17.9265 24.7693C18.0923 24.7693 18.2565 24.7366 18.4096 24.6731C18.5628 24.6096 18.7019 24.5165 18.819 24.3992L27.113 16.1052C27.2303 15.9881 27.3234 15.849 27.3869 15.6958C27.4504 15.5427 27.4831 15.3785 27.4831 15.2127C27.4831 15.047 27.4504 14.8828 27.3869 14.7296C27.3234 14.5765 27.2303 14.4374 27.113 14.3203L27.0091 14.2164C26.8919 14.099 26.7528 14.0059 26.5997 13.9424C26.4465 13.8789 26.2824 13.8462 26.1166 13.8462C25.9508 13.8462 25.7866 13.8789 25.6335 13.9424C25.4803 14.0059 25.3412 14.099 25.2241 14.2164L17.9247 21.5121L14.043 17.6304Z" fill="#2E396D"/>
</svg>
