<svg width="45" height="45" viewBox="0 0 45 45" fill="none" xmlns="http://www.w3.org/2000/svg">
<circle cx="22.5" cy="22.5" r="22.5" fill="#E97E00"/>
<path d="M17.9723 20.616C18.0149 19.4747 18.3883 18.5947 19.0923 17.976C19.7963 17.3573 20.7509 17.048 21.9563 17.048C22.7563 17.048 23.4389 17.1867 24.0043 17.464C24.5803 17.7413 25.0123 18.12 25.3003 18.6C25.5989 19.08 25.7483 19.6187 25.7483 20.216C25.7483 20.92 25.5723 21.496 25.2203 21.944C24.8683 22.3813 24.4576 22.68 23.9883 22.84V22.904C24.5963 23.1067 25.0763 23.4427 25.4283 23.912C25.7803 24.3813 25.9563 24.984 25.9563 25.72C25.9563 26.3813 25.8016 26.968 25.4923 27.48C25.1936 27.9813 24.7509 28.376 24.1643 28.664C23.5883 28.952 22.9003 29.096 22.1003 29.096C20.8203 29.096 19.7963 28.7813 19.0283 28.152C18.2709 27.5227 17.8709 26.5733 17.8283 25.304H20.4843C20.4949 25.7733 20.6283 26.1467 20.8843 26.424C21.1403 26.6907 21.5136 26.824 22.0043 26.824C22.4203 26.824 22.7403 26.7067 22.9643 26.472C23.1989 26.2267 23.3163 25.9067 23.3163 25.512C23.3163 25 23.1509 24.632 22.8203 24.408C22.5003 24.1733 21.9829 24.056 21.2682 24.056H20.7563V21.832H21.2682C21.8123 21.832 22.2496 21.7413 22.5803 21.56C22.9216 21.368 23.0923 21.032 23.0923 20.552C23.0923 20.168 22.9856 19.8693 22.7723 19.656C22.5589 19.4427 22.2656 19.336 21.8923 19.336C21.4869 19.336 21.1829 19.4587 20.9803 19.704C20.7883 19.9493 20.6763 20.2533 20.6443 20.616H17.9723Z" fill="white"/>
</svg>
