<svg width="38" height="38" viewBox="0 0 38 38" fill="none" xmlns="http://www.w3.org/2000/svg">
<g clip-path="url(#clip0_114_6565)">
<path d="M9.14742 15.8787L16.0417 4.8587C16.3089 4.42314 16.6843 4.0642 17.1315 3.81685C17.5786 3.5695 18.0822 3.44217 18.5931 3.44727C18.9956 3.43275 19.3968 3.49904 19.7732 3.64223C20.1495 3.78542 20.4934 4.00261 20.7844 4.28095C21.0754 4.5593 21.3076 4.89315 21.4674 5.26278C21.6271 5.63241 21.7112 6.03032 21.7146 6.43299V14.3316H33.6303C34.0706 14.3458 34.5029 14.4532 34.8987 14.6464C35.2946 14.8397 35.645 15.1146 35.9271 15.4531C36.2091 15.7915 36.4163 16.1858 36.535 16.61C36.6537 17.0342 36.6813 17.4788 36.616 17.9144L34.4446 31.9201C34.3519 32.6686 33.9891 33.3575 33.4243 33.8574C32.8595 34.3572 32.1316 34.6335 31.3774 34.6344H13.5717C12.7241 34.6377 11.8875 34.4425 11.1288 34.0644L9.17456 33.0873M9.14742 15.8787V33.0058H2.71456C2.35463 33.0058 2.00943 32.8629 1.75492 32.6083C1.50041 32.3538 1.35742 32.0086 1.35742 31.6487V17.2358C1.35742 16.8759 1.50041 16.5307 1.75492 16.2762C2.00943 16.0217 2.35463 15.8787 2.71456 15.8787H9.14742Z" stroke="#1439BC" stroke-width="2.71429" stroke-linecap="round" stroke-linejoin="round"/>
</g>
<defs>
<clipPath id="clip0_114_6565">
<rect width="38" height="38" fill="white"/>
</clipPath>
</defs>
</svg>
