<svg width="45" height="45" viewBox="0 0 45 45" fill="none" xmlns="http://www.w3.org/2000/svg">
<circle cx="22.5" cy="22.5" r="22.5" fill="#F80000"/>
<path d="M18.0537 26.808C18.4164 26.52 18.5817 26.3867 18.5497 26.408C19.595 25.544 20.4164 24.8347 21.0137 24.28C21.6217 23.7253 22.1337 23.144 22.5497 22.536C22.9657 21.928 23.1737 21.336 23.1737 20.76C23.1737 20.3227 23.0724 19.9813 22.8697 19.736C22.667 19.4907 22.363 19.368 21.9577 19.368C21.5524 19.368 21.2324 19.5227 20.9977 19.832C20.7737 20.1307 20.6617 20.5573 20.6617 21.112H18.0217C18.043 20.2053 18.235 19.448 18.5977 18.84C18.971 18.232 19.4564 17.784 20.0537 17.496C20.6617 17.208 21.3337 17.064 22.0697 17.064C23.339 17.064 24.2937 17.3893 24.9337 18.04C25.5844 18.6907 25.9097 19.5387 25.9097 20.584C25.9097 21.7253 25.5204 22.7867 24.7417 23.768C23.963 24.7387 22.971 25.688 21.7657 26.616H26.0857V28.84H18.0537V26.808Z" fill="white"/>
</svg>
