<svg width="38" height="38" viewBox="0 0 38 38" fill="none" xmlns="http://www.w3.org/2000/svg">
<path d="M30.0834 1.5835H14.2501C12.5084 1.5835 11.0834 3.0085 11.0834 4.75016V7.91683C11.0834 8.78766 11.7959 9.50016 12.6668 9.50016C13.5376 9.50016 14.2501 8.78766 14.2501 7.91683V6.3335H30.0834V31.6668H14.2501V30.0835C14.2501 29.2127 13.5376 28.5002 12.6668 28.5002C11.7959 28.5002 11.0834 29.2127 11.0834 30.0835V33.2502C11.0834 34.9918 12.5084 36.4168 14.2501 36.4168H30.0834C31.8251 36.4168 33.2501 34.9918 33.2501 33.2502V4.75016C33.2501 3.0085 31.8251 1.5835 30.0834 1.5835ZM11.0993 21.3277L8.05927 18.2877C7.5051 17.7335 6.6026 17.7335 6.04844 18.2877C5.49427 18.8418 5.49427 19.7443 6.04844 20.2985L9.95927 24.2093C10.5768 24.8268 11.5743 24.8268 12.1918 24.2093L21.4543 14.9468C22.0084 14.3927 22.0084 13.4902 21.4543 12.936C20.9001 12.3818 19.9976 12.3818 19.4434 12.936L11.0993 21.3277Z" fill="#1439BC"/>
</svg>
