<svg width="52" height="50" viewBox="0 0 52 50" fill="none" xmlns="http://www.w3.org/2000/svg">
<mask id="mask0_937_856" style="mask-type:luminance" maskUnits="userSpaceOnUse" x="0" y="0" width="52" height="50">
<path d="M0 0H51.7395V50H0V0Z" fill="white"/>
</mask>
<g mask="url(#mask0_937_856)">
<mask id="mask1_937_856" style="mask-type:luminance" maskUnits="userSpaceOnUse" x="0" y="0" width="52" height="50">
<path d="M5.97808 0H45.7614C47.3472 0 48.8687 0.628944 49.9896 1.74983C51.1105 2.87072 51.7395 4.39223 51.7395 5.97808V44.0219C51.7395 45.6078 51.1105 47.1293 49.9896 48.2502C48.8687 49.3711 47.3472 50 45.7614 50H5.97808C4.39223 50 2.87072 49.3711 1.74983 48.2502C0.628944 47.1293 0 45.6078 0 44.0219V5.97808C0 4.39223 0.628944 2.87072 1.74983 1.74983C2.87072 0.628944 4.39223 0 5.97808 0Z" fill="white"/>
</mask>
<g mask="url(#mask1_937_856)">
<path d="M0 0H51.7395V50H0V0Z" fill="#2E396D"/>
</g>
</g>
<mask id="mask2_937_856" style="mask-type:luminance" maskUnits="userSpaceOnUse" x="0" y="0" width="52" height="50">
<path d="M0 0H51.617V49.8173H0V0Z" fill="white"/>
</mask>
<g mask="url(#mask2_937_856)">
<mask id="mask3_937_856" style="mask-type:luminance" maskUnits="userSpaceOnUse" x="0" y="0" width="52" height="50">
<path d="M5.98003 0H45.7592C47.345 0 48.8645 0.628944 49.9853 1.74983C51.1062 2.87072 51.7373 4.39223 51.7373 5.97601V44.0178C51.7373 45.6036 51.1062 47.1231 49.9853 48.2439C48.8645 49.3648 47.345 49.9958 45.7592 49.9958H5.98003C4.39418 49.9958 2.87268 49.3648 1.75179 48.2439C0.630897 47.1231 0.00195312 45.6036 0.00195312 44.0178V5.97601C0.00195312 4.39223 0.630897 2.87072 1.75179 1.74983C2.87268 0.628944 4.39418 0 5.98003 0Z" fill="white"/>
</mask>
<g mask="url(#mask3_937_856)">
<path d="M5.98004 0H45.7592C47.3451 0 48.8645 0.628944 49.9854 1.74983C51.1063 2.87073 51.7373 4.39223 51.7373 5.97601V44.0178C51.7373 45.6036 51.1063 47.1231 49.9854 48.244C48.8645 49.3648 47.3451 49.9959 45.7592 49.9959H5.98004C4.39418 49.9959 2.87268 49.3648 1.75179 48.244C0.630897 47.1231 0.00195312 45.6036 0.00195312 44.0178V5.97601C0.00195312 4.39223 0.630897 2.87073 1.75179 1.74983C2.87268 0.628944 4.39418 0 5.98004 0Z" stroke="#2E396D" stroke-width="4"/>
</g>
</g>
<mask id="mask4_937_856" style="mask-type:luminance" maskUnits="userSpaceOnUse" x="10" y="6" width="32" height="37">
<path d="M10.3379 6.89648H41.5464V42.9061H10.3379V6.89648Z" fill="white"/>
</mask>
<g mask="url(#mask4_937_856)">
<path d="M28.8448 21.5716C30.5676 21.5716 31.9563 22.9623 31.9563 24.6852C31.9563 26.408 30.5676 27.8112 28.8448 27.8112C28.577 27.8112 28.3238 27.7759 28.0851 27.7116L16.4382 39.0533C16.5233 39.3439 16.5752 39.6615 16.5752 39.9812C16.5752 41.704 15.1845 43.0927 13.4616 43.0927C11.7388 43.0927 10.3418 41.6957 10.3418 39.9729C10.3418 38.25 11.7471 36.8468 13.4699 36.8468C13.8103 36.8468 14.1507 36.9112 14.4538 37.0129L25.9346 25.8351C25.7976 25.4823 25.7167 25.0899 25.7167 24.6852C25.7167 24.461 25.7395 24.2285 25.7893 24.0126L14.4538 12.9657C14.1507 13.0674 13.8103 13.1317 13.4699 13.1317C11.7471 13.1255 10.3418 11.7202 10.3418 10.0057C10.3418 8.28905 11.7471 6.89209 13.4699 6.89209C15.1928 6.89209 16.5814 8.28282 16.5814 10.0057C16.5814 10.3233 16.5316 10.6346 16.4444 10.9314L27.6201 21.8186C27.9979 21.6671 28.4172 21.5716 28.8448 21.5716ZM14.8814 34.4494V34.4867C14.8814 35.2672 14.2504 35.9045 13.4616 35.9045C12.6728 35.9045 12.0356 35.2755 12.0356 34.4867V15.4918C12.0356 14.7093 12.6811 14.0741 13.4616 14.0741C14.2442 14.0741 14.8814 14.703 14.8814 15.4918V34.4494ZM19.1304 8.58588H24.986C29.5028 8.58588 33.6003 10.4187 36.5686 13.4078C39.5431 16.3823 41.3884 20.4798 41.3884 24.9882C41.3884 29.4988 39.5431 33.6025 36.5686 36.5708C33.592 39.5536 29.4966 41.3927 24.986 41.3927H19.1304C18.3479 41.3927 17.7106 40.7617 17.7106 39.9729C17.7106 39.1903 18.3416 38.5469 19.1304 38.5469H24.986C28.714 38.5469 32.1078 37.0274 34.5634 34.5656C37.0169 32.1121 38.5446 28.7245 38.5446 24.9882C38.5446 21.254 37.0169 17.8664 34.5634 15.4129C32.1078 12.9449 28.7202 11.4317 24.986 11.4317H19.1304C18.3479 11.4317 17.7106 10.7861 17.7106 10.0057C17.7106 9.22313 18.3479 8.58588 19.1304 8.58588Z" fill="#FFCB0F"/>
</g>
</svg>
